<svg width="256" height="256" viewBox="0 0 256 256" fill="none" xmlns="http://www.w3.org/2000/svg">
  <defs>
    <linearGradient id="brandGradient" x1="44" y1="36" x2="220" y2="220" gradientUnits="userSpaceOnUse">
      <stop offset="0" stop-color="#6B5CFF"/>
      <stop offset="1" stop-color="#947CFF"/>
    </linearGradient>
    <linearGradient id="heartGradient" x1="128" y1="88" x2="128" y2="176" gradientUnits="userSpaceOnUse">
      <stop offset="0" stop-color="rgba(255,255,255,0.92)"/>
      <stop offset="1" stop-color="rgba(255,255,255,0.72)"/>
    </linearGradient>
  </defs>
  <rect x="32" y="32" width="192" height="192" rx="88" fill="url(#brandGradient)"/>
  <path d="M88 96C78.0589 96 70 104.059 70 114C70 145.5 128 188 128 188C128 188 186 145.5 186 114C186 104.059 177.941 96 168 96C158.059 96 150 104.059 150 114C150 104.059 141.941 96 132 96C122.059 96 114 104.059 114 114C114 104.059 105.941 96 96 96H88Z" fill="url(#heartGradient)"/>
  <circle cx="92" cy="92" r="18" fill="rgba(255,255,255,0.85)"/>
  <circle cx="128" cy="92" r="18" fill="rgba(255,255,255,0.78)"/>
  <circle cx="164" cy="92" r="18" fill="rgba(255,255,255,0.85)"/>
</svg>
